<svg width="30" height="28" fill="none" xmlns="http://www.w3.org/2000/svg"><path d="M17.19 14L29.312 2.486a1.34 1.34 0 00.35-.957 1.357 1.357 0 00-.426-.928 1.5 1.5 0 00-.978-.406 1.51 1.51 0 00-1.008.333L15.13 12.042 3.007.514A1.508 1.508 0 001.969.105c-.39 0-.763.147-1.038.409A1.36 1.36 0 00.5 1.5c0 .37.154.725.43.986L13.067 14 .931 25.514a1.4 1.4 0 00-.366.45 1.333 1.333 0 00.283 1.587c.142.135.313.241.5.311a1.53 1.53 0 001.17-.043c.182-.083.343-.201.474-.347L15.13 15.958l12.12 11.514c.28.228.64.347 1.008.333a1.5 1.5 0 00.978-.406c.26-.247.412-.579.427-.928a1.349 1.349 0 00-.35-.957L17.19 14z" fill="#fff"/></svg>