<svg width="24" height="84" fill="none" xmlns="http://www.w3.org/2000/svg"><path d="M.5 45.594c0-6.352 5.148-11.5 11.5-11.5 6.35 0 11.5 5.148 11.5 11.5v26c0 6.351-5.15 11.5-11.5 11.5-6.352 0-11.5-5.149-11.5-11.5v-26z" fill="#000" stroke="#fff"/><path d="M17.086 68.094H16.06a.22.22 0 00-.176.09L12 73.538l-3.884-5.354a.22.22 0 00-.177-.09H6.914a.11.11 0 00-.09.173l4.822 6.646c.175.24.533.24.706 0l4.821-6.646a.109.109 0 00-.087-.173z" fill="#fff"/><circle cx="11.999" cy="24.594" r="4" fill="#fff"/><circle cx="11.999" cy="12.594" r="3" fill="#fff"/><circle cx="11.999" cy="2.594" r="2" fill="#fff"/></svg>