<svg width="21" height="21" fill="none" xmlns="http://www.w3.org/2000/svg"><path d="M10.444 5.47a5 5 0 00-5.007 5.007 5 5 0 005.007 5.007 5 5 0 005.007-5.007 5 5 0 00-5.007-5.008zm0 8.261a3.261 3.261 0 01-3.254-3.254 3.261 3.261 0 013.254-3.255 3.261 3.261 0 013.254 3.255 3.261 3.261 0 01-3.254 3.254zm5.212-9.634c-.647 0-1.169.523-1.169 1.17 0 .647.522 1.17 1.17 1.17a1.166 1.166 0 001.08-1.618 1.167 1.167 0 00-1.08-.722zm4.549 6.38c0-1.348.012-2.683-.064-4.029-.075-1.562-.432-2.949-1.574-4.091-1.145-1.145-2.53-1.5-4.092-1.575-1.348-.076-2.683-.064-4.028-.064-1.348 0-2.684-.012-4.029.064-1.562.076-2.949.432-4.092 1.575C1.181 3.502.827 4.886.752 6.448.676 7.796.688 9.132.688 10.477c0 1.345-.012 2.683.064 4.028.075 1.563.432 2.95 1.574 4.092 1.145 1.145 2.53 1.499 4.092 1.575 1.348.075 2.683.063 4.029.063 1.347 0 2.683.012 4.028-.063 1.562-.076 2.95-.433 4.092-1.575 1.145-1.145 1.499-2.53 1.574-4.092.079-1.345.064-2.68.064-4.028zm-2.149 5.757a3.102 3.102 0 01-.737 1.118 3.123 3.123 0 01-1.118.737c-1.284.51-4.334.396-5.757.396s-4.475.114-5.76-.393a3.101 3.101 0 01-1.117-.738 3.123 3.123 0 01-.738-1.118c-.507-1.287-.393-4.336-.393-5.76 0-1.423-.114-4.474.393-5.758.179-.445.393-.777.738-1.119a3.154 3.154 0 011.118-.737c1.284-.508 4.336-.393 5.76-.393 1.422 0 4.474-.115 5.758.393.445.178.777.393 1.119.737.344.345.559.674.737 1.119.508 1.284.393 4.335.393 5.759 0 1.423.115 4.473-.396 5.757z" fill="#fff"/></svg>