<svg width="23" height="22" fill="none" xmlns="http://www.w3.org/2000/svg"><path d="M22.193 1.122a2.133 2.133 0 00-2.165-.338L1.36 8.321a2.128 2.128 0 00.109 3.977l3.776 1.313 2.104 6.96c.029.094.07.182.124.263.008.013.02.021.028.035a1.028 1.028 0 00.293.276c.098.065.208.113.323.141l.013.001.006.004c.07.013.14.02.212.02l.019-.003c.106-.002.212-.02.313-.054.024-.008.044-.02.067-.031.075-.031.147-.071.213-.119l.159-.134 2.814-3.108 4.198 3.252c.37.288.825.445 1.293.445a2.14 2.14 0 002.092-1.7l3.399-16.685a2.115 2.115 0 00-.722-2.052zM8.76 13.942a1.036 1.036 0 00-.283.528l-.323 1.566-.817-2.7 4.235-2.206-2.812 2.813zm8.648 5.526l-4.961-3.844a1.043 1.043 0 00-1.41.125l-.902.995.32-1.55 7.377-7.378a1.042 1.042 0 00-1.217-1.659L6.026 11.67l-3.88-1.42 18.728-7.49-3.466 16.708z" fill="#fff"/></svg>