<svg width="23" height="23" fill="none" xmlns="http://www.w3.org/2000/svg"><path d="M16.42 13.239c-.267-.137-1.592-.786-1.839-.874-.246-.093-.427-.137-.605.136-.181.272-.694.875-.855 1.058-.156.18-.315.202-.581.068-1.582-.791-2.62-1.411-3.662-3.2-.276-.477.276-.443.791-1.47.088-.181.044-.335-.024-.472-.069-.136-.606-1.46-.83-2-.218-.524-.442-.45-.606-.46-.156-.01-.334-.01-.515-.01a.996.996 0 00-.718.334c-.247.271-.942.923-.942 2.246s.964 2.605 1.096 2.786c.137.18 1.897 2.895 4.6 4.065 1.708.737 2.377.8 3.232.674.52-.079 1.592-.65 1.814-1.282.222-.63.222-1.17.156-1.282-.066-.12-.246-.188-.513-.317z" fill="#fff"/><path d="M21.588 6.854a10.942 10.942 0 00-5.85-5.85A10.886 10.886 0 0011.5.156h-.049A10.912 10.912 0 00.562 11.144a10.971 10.971 0 001.172 4.88v3.711c0 .62.503 1.123 1.123 1.123h3.714a10.972 10.972 0 004.88 1.172h.051c1.463 0 2.881-.283 4.217-.837a10.853 10.853 0 003.486-2.324 10.911 10.911 0 003.232-7.727 10.87 10.87 0 00-.85-4.288zm-3.69 10.694a9.034 9.034 0 01-6.398 2.627h-.041a9.114 9.114 0 01-4.227-1.062l-.205-.11H3.59v-3.438l-.11-.205a9.115 9.115 0 01-1.062-4.226 9.026 9.026 0 012.627-6.44A9.014 9.014 0 0111.46 2.01h.041c1.221 0 2.405.237 3.52.705a9.023 9.023 0 012.906 1.953 9.044 9.044 0 012.659 6.465 9.047 9.047 0 01-2.688 6.414z" fill="#fff"/></svg>