<svg width="13" height="16" fill="none" xmlns="http://www.w3.org/2000/svg"><path d="M2.517 1.647c.64-.411 1.46-.568 2.268-.458l.14.019a1.571 1.571 0 011.193.854l.738 1.476a1.857 1.857 0 01-.63 2.375l-.977.65c-.227.152-.29.361-.24.515C5.312 8 6.118 9.25 6.82 9.967c.132.134.37.174.615.04l.745-.41a2.143 2.143 0 012.913.85l.596 1.093a1.571 1.571 0 01.008 1.49c-.829 1.558-2.719 2.422-4.322 1.373-1.368-.895-3.05-2.378-4.425-4.76C1.555 7.226 1.276 5.13 1.362 3.614c.05-.875.506-1.55 1.155-1.967h0z" fill="#000" stroke="#fff"/></svg>