<svg width="15" height="14" fill="none" xmlns="http://www.w3.org/2000/svg"><path d="M12.908 10.79c-.644.556-1.577.954-2.8 1.195a13.9 13.9 0 01-3.778.212L3.867 14v-2.254c-.812-.245-1.446-.564-1.903-.956-.541-.464-.961-1.131-1.26-2a8.148 8.148 0 010-5.328c.299-.87.72-1.538 1.267-2.007.546-.47 1.327-.829 2.344-1.08A13.005 13.005 0 017.435 0C8.5 0 9.54.125 10.558.376c1.017.25 1.798.61 2.344 1.079.546.469.968 1.138 1.267 2.007a8.15 8.15 0 010 5.327c-.3.87-.719 1.537-1.26 2.001zM9.199 7.444l.91.15a4.205 4.205 0 00-1.295-2.8c-.788-.774-1.742-1.197-2.862-1.27l.154.888c.803.1 1.493.432 2.072.997a3.376 3.376 0 011.021 2.035zM6.26 5.327l.168.983c.373.182.649.451.826.806l1.008.164c-.112-.483-.35-.9-.714-1.25a2.743 2.743 0 00-1.288-.703zm-1.497.806v-.874a.77.77 0 00-.175-.465 1.138 1.138 0 00-.371-.334c-.13-.069-.229-.076-.294-.021l-.644.642c-.364.355-.417.908-.16 1.66.256.75.746 1.48 1.469 2.185.723.706 1.47 1.184 2.239 1.434.77.25 1.332.198 1.686-.157l.658-.642c.066-.055.063-.148-.007-.28a1.046 1.046 0 00-.343-.362.834.834 0 00-.475-.164H7.45l-.518.437c-.41-.11-.921-.462-1.532-1.058-.612-.597-.973-1.1-1.085-1.51l.448-.491zm.895-4.371l.14.888a5.283 5.283 0 012.59.717 5.25 5.25 0 011.889 1.844c.466.77.714 1.61.742 2.52l.91.15c0-.829-.166-1.62-.498-2.377a6.14 6.14 0 00-1.336-1.953 6.31 6.31 0 00-2.001-1.304 6.26 6.26 0 00-2.436-.485z" fill="#020202"/></svg>