<svg width="15" height="14" fill="none" xmlns="http://www.w3.org/2000/svg"><path d="M.26 14l.97-3.478A6.835 6.835 0 01.256 7c0-3.866 3.215-7 7.18-7s7.18 3.134 7.18 7-3.215 7-7.18 7a7.288 7.288 0 01-3.611-.948L.259 14zM4.844 3.716a.704.704 0 00-.267.07.925.925 0 00-.21.16c-.087.078-.136.147-.188.213a1.88 1.88 0 00-.406 1.175c.002.343.094.677.237.99.294.63.777 1.299 1.415 1.918.154.15.304.3.466.439a6.84 6.84 0 002.756 1.432l.409.06c.133.008.266-.002.4-.008a1.45 1.45 0 00.597-.162c.094-.047.186-.099.275-.154 0 0 .031-.02.09-.063.097-.07.156-.12.237-.202.06-.06.111-.13.15-.211.057-.114.113-.332.136-.513.017-.139.012-.214.01-.261-.003-.075-.067-.153-.137-.186l-.418-.182s-.624-.266-1.005-.435a.365.365 0 00-.128-.029.354.354 0 00-.27.09v-.002c-.005 0-.053.04-.572.653a.257.257 0 01-.264.091 1.033 1.033 0 01-.137-.046c-.09-.037-.12-.05-.181-.077l-.004-.001a4.33 4.33 0 01-1.127-.7c-.09-.077-.174-.161-.26-.242a4.43 4.43 0 01-.733-.888l-.042-.066a.64.64 0 01-.073-.144c-.028-.103.044-.185.044-.185s.174-.187.255-.287c.068-.084.13-.171.189-.261.085-.133.111-.27.067-.376a62.25 62.25 0 00-.623-1.428c-.043-.094-.168-.161-.283-.175a3.266 3.266 0 00-.116-.01 2.492 2.492 0 00-.29.003z" fill="#000"/></svg>