<svg width="18" height="12" fill="none" xmlns="http://www.w3.org/2000/svg"><path d="M11.621 1.323h4.286v1.04h-4.286v-1.04zM7.326 5.437c.948-.453 1.444-1.143 1.444-2.209C8.77 1.121 7.202.61 5.39.61H.407v10.58H5.53c1.921 0 3.724-.925 3.724-3.073 0-1.328-.628-2.31-1.928-2.68zM2.731 2.414h2.18c.84 0 1.595.234 1.595 1.21 0 .898-.587 1.259-1.418 1.259H2.73V2.414zm2.481 6.978H2.73V6.48h2.533c1.022 0 1.67.427 1.67 1.51 0 1.066-.772 1.403-1.72 1.403zM17.583 7.47c0-2.266-1.326-4.155-3.723-4.155-2.331 0-3.917 1.756-3.917 4.057 0 2.384 1.502 4.021 3.917 4.021 1.828 0 3.012-.822 3.581-2.578h-1.854c-.202.656-1.022 1-1.66 1-1.234 0-1.878-.723-1.878-1.95h5.519c.006-.126.015-.26.015-.395zm-5.534-.932c.066-1.008.739-1.637 1.744-1.637 1.057 0 1.586.62 1.678 1.637H12.05z" fill="#000"/></svg>