<svg width="13" height="13" fill="none" xmlns="http://www.w3.org/2000/svg"><path d="M6.244 3.041A3.2 3.2 0 003.04 6.246 3.2 3.2 0 006.244 9.45 3.2 3.2 0 009.45 6.246 3.2 3.2 0 006.244 3.04zm0 5.288a2.087 2.087 0 01-2.083-2.083c0-1.147.936-2.083 2.083-2.083 1.147 0 2.083.936 2.083 2.083a2.087 2.087 0 01-2.083 2.083zM9.58 2.163a.748.748 0 100 1.497.747.747 0 00.53-1.278.749.749 0 00-.53-.219zm2.911 4.083c0-.863.008-1.717-.04-2.578-.049-1-.277-1.888-1.008-2.62C10.71.317 9.823.09 8.823.042c-.862-.048-1.716-.04-2.577-.04-.863 0-1.717-.008-2.578.04-1 .049-1.888.277-2.62 1.008C.317 1.782.09 2.668.042 3.668c-.048.862-.04 1.717-.04 2.578 0 .86-.008 1.717.04 2.578.049 1 .277 1.887 1.008 2.619.733.732 1.619.959 2.619 1.008.862.048 1.717.04 2.578.04.862 0 1.717.008 2.578-.04 1-.049 1.887-.277 2.619-1.008.732-.733.959-1.62 1.008-2.62.05-.86.04-1.715.04-2.577zM11.116 9.93a1.987 1.987 0 01-.472.716 2 2 0 01-.715.472c-.822.326-2.774.253-3.685.253-.91 0-2.864.073-3.686-.252a1.984 1.984 0 01-.715-.472 1.999 1.999 0 01-.472-.715c-.325-.824-.252-2.775-.252-3.686s-.073-2.864.252-3.686c.114-.285.251-.497.472-.716a2.02 2.02 0 01.715-.472c.822-.325 2.775-.251 3.686-.251s2.864-.074 3.686.251c.284.114.497.252.716.472a2 2 0 01.472.716c.325.822.251 2.775.251 3.686 0 .91.074 2.862-.253 3.684z" fill="#000"/></svg>