<svg width="13" height="11" fill="none" xmlns="http://www.w3.org/2000/svg"><path d="M12.06.315A1.11 1.11 0 0010.935.14L1.227 4.059a1.107 1.107 0 00.057 2.068l1.963.683 1.094 3.62a.54.54 0 00.065.136c.004.006.01.01.015.018a.535.535 0 00.152.143.533.533 0 00.168.074h.007l.003.002c.036.007.073.01.11.01h.01a.542.542 0 00.163-.03c.012-.003.022-.01.034-.015a.537.537 0 00.111-.062l.083-.07L6.725 9.02l2.183 1.691a1.095 1.095 0 001.373-.018c.198-.16.335-.385.387-.635l1.768-8.676A1.099 1.099 0 0012.06.315zM5.075 6.982a.538.538 0 00-.147.274l-.168.815-.424-1.405L6.537 5.52 5.075 6.982zm4.497 2.873l-2.58-1.999a.542.542 0 00-.732.065l-.47.517.166-.805 3.837-3.837a.542.542 0 00-.633-.862L3.654 5.8l-2.018-.738 9.739-3.895-1.803 8.688z" fill="#000"/></svg>