<svg width="13" height="13" fill="none" xmlns="http://www.w3.org/2000/svg"><path d="M6.85 0C5.9 0 3.55.1 2.3 1.3 1.4 2.15 1.05 3.45 1 5c-.1 2.45.45 4 1.35 4.8.2.15.7.55 1.65.85v1.25s0 .5.3.6c.05 0 .1.05.15.05.3 0 .55-.35.9-.7.3-.35.55-.6.7-.85h1.1c.95 0 3.3-.1 4.55-1.3.9-.9 1.25-2.2 1.25-3.85C13 5.6 13 5.3 13 5c-.05-1.85-.6-3.1-1.35-3.8-.3-.25-1.6-1.2-4.4-1.2h-.4zm-.1.95h.45c2.65 0 3.65.85 3.75.95.6.5.95 1.6 1 3.05v.2c.05.3.05.55.05.7-.05 1.5-.35 2.5-.95 3.15-1.05.95-3.25 1-3.85 1h-.95l-.8.9-.5.55-.1.15c-.1.1-.25.3-.35.35V9.7c-1-.25-1.4-.6-1.5-.7-.7-.6-1.1-2.05-1-4v-.5c.1-1.2.4-2 .9-2.55 1.05-.95 3.25-1 3.85-1zm-.05 1.1c-.25 0-.25.35 0 .35 1.85 0 3.45 1.25 3.45 3.6 0 .25.35.25.35 0 0-2.55-1.7-4-3.8-3.95zm-1.982.463A.437.437 0 004.4 2.6c-.5.25-1 .75-.85 1.3 0 0 .1.45.65 1.4.3.45.55.85.8 1.15.25.35.65.75 1.05 1.05.8.65 2.05 1.3 2.6 1.45.5.15 1.05-.35 1.3-.85.1-.2.05-.45-.15-.6-.3-.3-.8-.65-1.15-.85-.25-.15-.55-.05-.65.1l-.25.3c-.1.15-.35.15-.35.15-1.65-.45-2.1-2.15-2.1-2.15s0-.2.15-.35l.3-.25c.15-.1.25-.4.1-.65-.1-.15-.25-.45-.4-.6C5.3 3 5 2.65 5 2.65a.481.481 0 00-.282-.137zm2.332.537C6.8 3 6.75 3.4 7 3.4c1.4.1 2.2 1.05 2.15 2.25-.05.25.35.25.35 0 .05-1.4-.85-2.55-2.45-2.6zM7.2 4c-.25-.05-.25.35 0 .35.6 0 .9.35.9.95.05.25.4.25.4 0C8.45 4.5 8 4 7.2 4z" fill="#000"/></svg>