<svg width="15" height="15" fill="none" xmlns="http://www.w3.org/2000/svg"><path d="M10.452 8.788c-.16-.082-.955-.472-1.103-.525-.148-.055-.257-.082-.364.082a9.212 9.212 0 01-.512.634c-.094.109-.19.122-.349.042-.95-.475-1.572-.847-2.197-1.92-.166-.287.165-.266.474-.883.053-.108.027-.2-.014-.282-.041-.082-.364-.876-.498-1.2-.13-.315-.265-.271-.364-.277-.093-.006-.2-.006-.309-.006a.597.597 0 00-.43.2c-.148.163-.566.555-.566 1.348 0 .794.579 1.563.658 1.672.082.108 1.138 1.737 2.76 2.439 1.025.442 1.426.48 1.94.404.311-.047.954-.39 1.088-.769.133-.378.133-.702.093-.769-.04-.072-.148-.113-.307-.19z" fill="#000"/><path d="M13.553 4.957a6.567 6.567 0 00-3.51-3.51A6.531 6.531 0 007.5.937h-.03A6.547 6.547 0 00.938 7.532a6.583 6.583 0 00.704 2.928v2.226c0 .373.301.674.673.674h2.228a6.584 6.584 0 002.929.704h.03c.878 0 1.729-.17 2.53-.503a6.512 6.512 0 002.092-1.395 6.547 6.547 0 001.94-4.636 6.538 6.538 0 00-.51-2.572zm-2.214 6.416A5.42 5.42 0 017.5 12.949h-.025a5.468 5.468 0 01-2.536-.637l-.123-.066H2.754v-2.062l-.066-.123a5.468 5.468 0 01-.637-2.536A5.416 5.416 0 013.627 3.66a5.408 5.408 0 013.85-1.61H7.5a5.423 5.423 0 013.856 1.595 5.424 5.424 0 011.595 3.879 5.428 5.428 0 01-1.613 3.848z" fill="#000"/></svg>