<svg width="17" height="13" fill="none" xmlns="http://www.w3.org/2000/svg"><path d="M14.521 2.538a.643.643 0 00-.426-.47c-.346-.097-2.033-.318-5.595-.318s-5.247.222-5.596.319c-.193.054-.364.232-.425.469-.087.335-.312 1.742-.312 3.962s.225 3.626.312 3.963a.64.64 0 00.426.467c.348.098 2.033.32 5.595.32 3.563 0 5.248-.222 5.596-.32.194-.053.364-.231.425-.468.087-.335.312-1.745.312-3.962s-.225-3.626-.312-3.962zm1.534-.394c.362 1.41.362 4.356.362 4.356s0 2.945-.362 4.356c-.201.78-.79 1.393-1.534 1.6-1.353.377-6.021.377-6.021.377s-4.665 0-6.02-.377a2.225 2.225 0 01-1.535-1.6C.583 9.445.583 6.5.583 6.5s0-2.945.362-4.356c.201-.78.79-1.393 1.534-1.6C3.835.166 8.5.166 8.5.166s4.668 0 6.02.376c.749.21 1.336.824 1.535 1.601zM6.917 9.271V3.729l4.75 2.77-4.75 2.772z" fill="#000"/></svg>