<svg width="19" height="18" fill="none" xmlns="http://www.w3.org/2000/svg"><g filter="url(#filter0_d)"><path d="M14.42 7.239c-.267-.137-1.592-.786-1.839-.874-.246-.093-.427-.137-.605.136-.181.271-.694.874-.855 1.058-.156.18-.315.202-.581.068-1.582-.791-2.62-1.411-3.662-3.2-.276-.477.276-.443.79-1.47.089-.181.045-.335-.023-.472-.069-.136-.606-1.46-.83-2-.218-.524-.442-.45-.606-.46-.156-.01-.334-.01-.515-.01a.996.996 0 00-.718.334c-.247.271-.942.923-.942 2.246S4.998 5.2 5.13 5.381c.137.18 1.897 2.895 4.6 4.065 1.708.737 2.377.8 3.232.674.52-.079 1.592-.65 1.814-1.282.222-.63.222-1.17.156-1.282-.066-.12-.247-.188-.513-.317z" fill="#fff"/><path d="M7.669 2.957c-.229.456-.465.703-.633.879-.21.219-.311.326-.158.59 1.042 1.79 2.08 2.41 3.662 3.2.266.135.425.113.581-.067L7.67 2.957zm0 0c.088-.181.044-.335-.024-.472-.046-.09-.299-.707-.53-1.268l-.3-.731.407 2.247.447.224zm6.75 4.282c-.266-.137-1.591-.786-1.838-.874l1.838.874zm0 0l.124.059m-.124-.06l.124.06m0 0c.198.094.334.158.39.258l-.39-.258zm-.352.386h0l.01.004.131.063.055.026.083.041c0 .039-.001.086-.006.142a2.952 2.952 0 01-.16.712h0c-.054.153-.257.377-.594.594-.324.208-.655.334-.822.36-.387.057-.71.069-1.129-.01-.434-.082-.989-.266-1.831-.63-2.366-1.023-3.98-3.313-4.338-3.82a5.083 5.083 0 00-.058-.082l-.01-.013a6.297 6.297 0 01-.544-.88c-.241-.477-.444-1.047-.444-1.596 0-1.037.49-1.564.756-1.85l.054-.057a.499.499 0 01.35-.173c.185 0 .346 0 .484.008v0h.001c.036.003.071.003.09.003h.006a.85.85 0 01.077.151v.001c.076.18.185.446.3.727l.174.422a28.045 28.045 0 00.388.92c-.191.378-.38.575-.54.743l-.062.067-.004.003c-.077.083-.222.238-.279.453-.068.26.014.488.116.664v.001c.548.939 1.105 1.59 1.746 2.111.634.515 1.331.888 2.125 1.285.166.084.38.162.616.133a.887.887 0 00.566-.32c.152-.172.648-.754.867-1.069l.04.015h0l.008.003c.091.032.453.2.863.398.395.19.788.384.915.45zM6.254.499L6.256.5a.013.013 0 01-.002 0zm.966 2.237s0 0 0 0v.002h0v-.002z" stroke="#000"/><path d="M7.669 2.957c-.229.456-.465.703-.633.879-.21.219-.311.326-.158.59 1.042 1.79 2.08 2.41 3.662 3.2.266.135.425.113.581-.067L7.67 2.957zm0 0c.088-.181.044-.335-.024-.472-.046-.09-.299-.707-.53-1.268l-.3-.731.407 2.247.447.224zm6.75 4.282c-.266-.137-1.591-.786-1.838-.874l1.838.874zm0 0l.124.059m-.124-.06l.124.06m0 0c.198.094.334.158.39.258l-.39-.258zm-.352.386h0l.01.004.131.063.055.026.083.041c0 .039-.001.086-.006.142a2.952 2.952 0 01-.16.712h0c-.054.153-.257.377-.594.594-.324.208-.655.334-.822.36-.387.057-.71.069-1.129-.01-.434-.082-.989-.266-1.831-.63-2.366-1.023-3.98-3.313-4.338-3.82a5.083 5.083 0 00-.058-.082l-.01-.013a6.297 6.297 0 01-.544-.88c-.241-.477-.444-1.047-.444-1.596 0-1.037.49-1.564.756-1.85l.054-.057a.499.499 0 01.35-.173c.185 0 .346 0 .484.008v0h.001c.036.003.071.003.09.003h.006a.85.85 0 01.077.151v.001c.076.18.185.446.3.727l.174.422a28.045 28.045 0 00.388.92c-.191.378-.38.575-.54.743l-.062.067-.004.003c-.077.083-.222.238-.279.453-.068.26.014.488.116.664v.001c.548.939 1.105 1.59 1.746 2.111.634.515 1.331.888 2.125 1.285.166.084.38.162.616.133a.887.887 0 00.566-.32c.152-.172.648-.754.867-1.069l.04.015h0l.008.003c.091.032.453.2.863.398.395.19.788.384.915.45zM6.254.499L6.256.5a.013.013 0 01-.002 0zm.966 2.237s0 0 0 0v.002h0v-.002z" stroke="#000" stroke-opacity=".2"/></g><defs><filter id="filter0_d" x=".034" y=".015" width="18.937" height="18.157" filterUnits="userSpaceOnUse" color-interpolation-filters="sRGB"><feFlood flood-opacity="0" result="BackgroundImageFix"/><feColorMatrix in="SourceAlpha" values="0 0 0 0 0 0 0 0 0 0 0 0 0 0 0 0 0 0 127 0"/><feOffset dy="4"/><feGaussianBlur stdDeviation="2"/><feColorMatrix values="0 0 0 0 0 0 0 0 0 0 0 0 0 0 0 0 0 0 0.25 0"/><feBlend in2="BackgroundImageFix" result="effect1_dropShadow"/><feBlend in="SourceGraphic" in2="effect1_dropShadow" result="shape"/></filter></defs></svg>