<svg width="25" height="24" fill="none" xmlns="http://www.w3.org/2000/svg"><g filter="url(#filter0_d)"><path d="M22.588 6.854a10.942 10.942 0 00-5.85-5.85A10.886 10.886 0 0012.5.156h-.049A10.912 10.912 0 001.562 11.144a10.971 10.971 0 001.172 4.88v3.711c0 .62.503 1.123 1.123 1.123h3.714a10.972 10.972 0 004.88 1.172h.051c1.463 0 2.881-.283 4.217-.837a10.853 10.853 0 003.486-2.324 10.911 10.911 0 003.232-7.727 10.87 10.87 0 00-.85-4.288zm-3.69 10.694a9.034 9.034 0 01-6.398 2.627h-.041a9.114 9.114 0 01-4.227-1.062l-.205-.11H4.59v-3.438l-.11-.205a9.115 9.115 0 01-1.062-4.226 9.026 9.026 0 012.627-6.44A9.014 9.014 0 0112.46 2.01h.041c1.221 0 2.405.237 3.52.705a9.023 9.023 0 012.906 1.953 9.044 9.044 0 012.659 6.465 9.047 9.047 0 01-2.688 6.414z" fill="#fff"/><path d="M22.127 7.048a10.44 10.44 0 00-2.244-3.339 10.35 10.35 0 00-3.338-2.243h0A10.386 10.386 0 0012.5.656h-.048a10.39 10.39 0 00-4.064.835l13.739 5.557zm0 0c.543 1.295.818 2.672.81 4.091a10.413 10.413 0 01-.836 4.066h0a10.334 10.334 0 01-2.248 3.308h0c-.96.953-2.08 1.698-3.326 2.218-1.275.529-2.628.8-4.025.8h-.05a10.474 10.474 0 01-4.656-1.119l-.106-.054H3.857a.623.623 0 01-.623-.623v-3.83l-.053-.106a10.472 10.472 0 01-1.119-4.657h0a10.442 10.442 0 01.8-4.076h0A10.338 10.338 0 015.079 3.74a10.373 10.373 0 013.308-2.25l13.74 5.557zm-9.668 13.627h-.003a9.614 9.614 0 01-4.459-1.121h0l-.095-.051H4.09V15.69l-.05-.095h-.001a9.614 9.614 0 01-1.121-4.46h0A9.526 9.526 0 015.69 4.342m6.769 16.333L5.689 4.342m6.77 16.333h.041a9.534 9.534 0 006.75-2.772m-6.791 2.772l6.792-2.772M5.69 4.342s0 0 0 0l.355.352-.355-.352a9.514 9.514 0 016.769-2.831h.043c1.287 0 2.537.25 3.714.744L5.69 4.342zm13.209 13.206l.352.355a9.547 9.547 0 002.836-6.766h0a9.545 9.545 0 00-2.805-6.821 9.525 9.525 0 00-3.066-2.06L18.9 17.547zm0 0l.352.355m-.352-.355l.352.355" stroke="#000"/><path d="M22.127 7.048a10.44 10.44 0 00-2.244-3.339 10.35 10.35 0 00-3.338-2.243h0A10.386 10.386 0 0012.5.656h-.048a10.39 10.39 0 00-4.064.835l13.739 5.557zm0 0c.543 1.295.818 2.672.81 4.091a10.413 10.413 0 01-.836 4.066h0a10.334 10.334 0 01-2.248 3.308h0c-.96.953-2.08 1.698-3.326 2.218-1.275.529-2.628.8-4.025.8h-.05a10.474 10.474 0 01-4.656-1.119l-.106-.054H3.857a.623.623 0 01-.623-.623v-3.83l-.053-.106a10.472 10.472 0 01-1.119-4.657h0a10.442 10.442 0 01.8-4.076h0A10.338 10.338 0 015.079 3.74a10.373 10.373 0 013.308-2.25l13.74 5.557zm-9.668 13.627h-.003a9.614 9.614 0 01-4.459-1.121h0l-.095-.051H4.09V15.69l-.05-.095h-.001a9.614 9.614 0 01-1.121-4.46h0A9.526 9.526 0 015.69 4.342m6.769 16.333L5.689 4.342m6.77 16.333h.041a9.534 9.534 0 006.75-2.772m-6.791 2.772l6.792-2.772M5.69 4.342s0 0 0 0l.355.352-.355-.352a9.514 9.514 0 016.769-2.831h.043c1.287 0 2.537.25 3.714.744L5.69 4.342zm13.209 13.206l.352.355a9.547 9.547 0 002.836-6.766h0a9.545 9.545 0 00-2.805-6.821 9.525 9.525 0 00-3.066-2.06L18.9 17.547zm0 0l.352.355m-.352-.355l.352.355" stroke="#000" stroke-opacity=".2"/></g><defs><filter id="filter0_d" x="-2.438" y=".155" width="29.875" height="29.875" filterUnits="userSpaceOnUse" color-interpolation-filters="sRGB"><feFlood flood-opacity="0" result="BackgroundImageFix"/><feColorMatrix in="SourceAlpha" values="0 0 0 0 0 0 0 0 0 0 0 0 0 0 0 0 0 0 127 0"/><feOffset dy="4"/><feGaussianBlur stdDeviation="2"/><feColorMatrix values="0 0 0 0 0 0 0 0 0 0 0 0 0 0 0 0 0 0 0.25 0"/><feBlend in2="BackgroundImageFix" result="effect1_dropShadow"/><feBlend in="SourceGraphic" in2="effect1_dropShadow" result="shape"/></filter></defs></svg>